<svg width="240" height="52" viewBox="0 0 240 52" fill="none" xmlns="http://www.w3.org/2000/svg">
  <defs>
    <linearGradient id="fieldGradient" x1="4" y1="8" x2="62" y2="44" gradientUnits="userSpaceOnUse">
      <stop stop-color="#F7FAFF"/>
      <stop offset="0.58" stop-color="#D7E5F8"/>
      <stop offset="1" stop-color="#88A8D6"/>
    </linearGradient>
  </defs>

  <g>
    <rect x="26" y="10" width="18" height="32" rx="9" fill="#F7FAFF" fill-opacity="0.14" stroke="url(#fieldGradient)" stroke-width="2.6"/>

    <path d="M6 16.5C13.5 12.4 21 10.7 29 10.7" stroke="url(#fieldGradient)" stroke-width="3" stroke-linecap="round"/>
    <path d="M4 23.3C12.4 20.3 20.1 18.9 29 18.9" stroke="url(#fieldGradient)" stroke-width="3" stroke-linecap="round" opacity="0.94"/>
    <path d="M4 30.1C12.4 33.1 20.1 34.5 29 34.5" stroke="url(#fieldGradient)" stroke-width="3" stroke-linecap="round" opacity="0.9"/>
    <path d="M6 36.9C13.5 41 21 42.7 29 42.7" stroke="url(#fieldGradient)" stroke-width="3" stroke-linecap="round"/>

    <path d="M44 10.7C51 10.7 56.9 12 62 15.1" stroke="url(#fieldGradient)" stroke-width="3" stroke-linecap="round" opacity="0.8"/>
    <path d="M44 42.7C51 42.7 56.9 41.4 62 38.3" stroke="url(#fieldGradient)" stroke-width="3" stroke-linecap="round" opacity="0.8"/>
  </g>

  <g fill="#F3F7FD">
    <text x="72" y="31" font-family="Geist, Inter, Arial, sans-serif" font-size="24" font-weight="600" letter-spacing="-0.06em">FieldTheory</text>
  </g>
</svg>
